<?xml version="1.0" encoding="utf-8"?>
<!-- Generator: Adobe Illustrator 24.3.0, SVG Export Plug-In . SVG Version: 6.00 Build 0)  -->
<svg version="1.1" id="Layer_1" xmlns="http://www.w3.org/2000/svg" xmlns:xlink="http://www.w3.org/1999/xlink" x="0px" y="0px"
	 viewBox="0 0 512 512" style="enable-background:new 0 0 512 512;" xml:space="preserve">
<style type="text/css">
	.st0{fill:#FFFFFF;}
	.st1{fill:#2B79C2;}
	.st2{fill:#3B4652;}
</style>
<g>
	<rect class="st0" width="512" height="512"/>
	<g>
		<path class="st1" d="M441.9,240.8V220c0-7.8-6.2-14-14-14h-32.4c-3.5-14-9-27.2-16.3-39.3l22.9-22.9c5.5-5.5,5.5-14.3,0-19.8
			l-29.4-29.4c-5.5-5.5-14.3-5.5-19.8,0L330,117.5c-12.1-7.3-25.2-12.8-39.3-16.3V68.9c0-7.8-6.2-14-14-14h-41.6
			c-7.8,0-14,6.2-14,14v32.4c-14,3.5-27.2,9-39.3,16.3L159,94.7c-5.5-5.5-14.3-5.5-19.8,0L109.8,124c-5.5,5.5-5.5,14.3,0,19.8
			l22.9,22.9c-7.3,12.1-12.8,25.3-16.3,39.3H84.1c-7.8,0-14,6.2-14,14v20.7h90.3c0-52.9,42.8-95.7,95.7-95.7s95.6,42.9,95.6,95.7
			H441.9z"/>
		<path class="st2" d="M314.8,240.8c0-32.5-26.3-58.8-58.8-58.8s-58.8,26.3-58.8,58.8s26.3,58.8,58.8,58.8S314.8,273.3,314.8,240.8z
			"/>
		<path class="st2" d="M167.5,271.7c0-3.3-2.6-5.9-5.9-5.9h-51.3c-3.3,0-5.9,2.6-5.9,5.9v85.1H80.2c-3.3,0-5.9,2.6-5.9,5.9v34.7
			c1.9-0.3,3.9-0.5,5.9-0.5c2,0,4,0.2,5.9,0.5v-28.8h24.1c3.3,0,5.9-2.6,5.9-5.9v-85.1h45.4C164.9,277.6,167.5,275,167.5,271.7z"/>
		
			<ellipse transform="matrix(3.327817e-02 -0.9994 0.9994 3.327817e-02 -355.035 498.5564)" class="st2" cx="80.2" cy="432.8" rx="24.2" ry="24.2"/>
		<circle class="st2" cx="148.5" cy="432.8" r="24.2"/>
		<path class="st2" d="M177.6,301.6h-29c-3.3,0-5.9,2.6-5.9,5.9v89.8c1.9-0.3,3.9-0.5,5.9-0.5s4,0.2,5.9,0.5v-83.9h23.1
			c3.3,0,5.9-2.6,5.9-5.9S180.8,301.6,177.6,301.6z"/>
		<circle class="st2" cx="220.7" cy="432.8" r="24.2"/>
		<path class="st2" d="M226.6,397.3v-79.4c0-3.3-2.6-5.9-5.9-5.9s-5.9,2.6-5.9,5.9v79.4c1.9-0.3,3.9-0.5,5.9-0.5
			C222.7,396.8,224.6,397,226.6,397.3z"/>
		<path class="st2" d="M425.9,397.3c1.9-0.3,3.9-0.5,5.9-0.5c2,0,4,0.2,5.9,0.5v-34.7c0-3.3-2.6-5.9-5.9-5.9h-24.1v-85.1
			c0-3.3-2.6-5.9-5.9-5.9h-51.3c-3.3,0-5.9,2.6-5.9,5.9s2.6,5.9,5.9,5.9h45.4v85.1c0,3.3,2.6,5.9,5.9,5.9h24.1V397.3z"/>
		<circle class="st2" cx="431.8" cy="432.8" r="24.2"/>
		<circle class="st2" cx="363.5" cy="432.8" r="24.2"/>
		<path class="st2" d="M357.6,397.3c1.9-0.3,3.9-0.5,5.9-0.5c2,0,4,0.2,5.9,0.5v-89.8c0-3.3-2.6-5.9-5.9-5.9h-29.1
			c-3.3,0-5.9,2.6-5.9,5.9s2.6,5.9,5.9,5.9h23.1L357.6,397.3L357.6,397.3z"/>
		<circle class="st2" cx="291.3" cy="432.8" r="24.2"/>
		<path class="st2" d="M285.4,317.9v79.4c1.9-0.3,3.9-0.5,5.9-0.5c2,0,4,0.2,5.9,0.5v-79.4c0-3.3-2.6-5.9-5.9-5.9
			C288.1,312,285.4,314.7,285.4,317.9z"/>
	</g>
</g>
</svg>
